<?xml version="1.0" encoding="utf-8"?>
<!-- Generator: Adobe Illustrator 25.4.1, SVG Export Plug-In . SVG Version: 6.00 Build 0)  -->
<svg version="1.1" xmlns="http://www.w3.org/2000/svg" xmlns:xlink="http://www.w3.org/1999/xlink" x="0px" y="0px"
	 viewBox="0 0 2100 696" style="enable-background:new 0 0 2100 696;" xml:space="preserve">
<style type="text/css">
	.st0{fill:#FFFFFF;}
</style>
<g id="Layer_1">
	<g>
		<path class="st0" d="M223.6,387c0,4,2,4.6,4,4.6l59.2,5.1c3,0.5,5.1-1,6.1-4c2.5-9.1,9.1-17.2,19.2-17.2
			c15.7,0,23.8,11.6,23.8,32.4c0,31.9-0.5,35.4-8.1,35.4c-8.1,0-8.1-5.6-8.1-29.4c0-2.5-1-3.5-3-3.5l-94.7,3.5
			c-1.5,0-2.5,1.5-2.5,3.5v25.8c0,53.2,40,110.9,106.8,110.9c68.8,0,115.4-44,115.4-130.1c0-72.4-42.5-126.6-106.8-126.6
			c-12.1,0-23.8,2.5-29.9,6.6c-2,1-3,1.5-3.5,1.5c-0.5,0-1,0-1-1.5c0-4.1,1.5-25.3,6.6-24.8l116.4,7.6c2.5,0,4.1-0.5,4.6-3.5
			l9.6-100.2c0-2.5-1-3.5-3-3.5H246.4c-2,0-3.5,1.5-4.1,3.5L223.6,387L223.6,387z"/>
		<path class="st0" d="M633,228.8c13.2-15.7,21.1-35.8,21.1-57.8c0-41.3-28-76.1-66.3-87.5C574.1,38.1,531.2,5,480.5,5
			c-27.2,0-52.1,9.5-71.5,25.3c11.2,1,22.1,3.3,32.4,6.6c11.8-5.7,25-9,39.1-9c36.2,0,67.3,21.3,81,51.7c-0.2,0-0.4,0-0.7,0
			c-15.8,0-30.7,3.9-43.7,10.7C464.5,54.7,401.2,33.9,333,33.9c-181.4,0-328.4,147-328.4,328.4c0,181.4,147,328.4,328.4,328.4
			c181.4,0,328.4-147,328.4-328.4C661.4,314.7,651.2,269.6,633,228.8L633,228.8z M333,110.7c50.4,0,97.4,14.9,136.7,40.4l0,0
			c12.8,8.3,24.9,17.8,35.9,28.2c0.2,0.2,0.4,0.4,0.6,0.6c6.5,6.1,12.6,12.6,18.4,19.4c0.1,0.1,0.2,0.2,0.3,0.3
			c1.8,2.1,3.5,4.2,5.2,6.4c0.4,0.5,0.8,1,1.2,1.5c5.3,6.8,10.3,13.9,14.9,21.2c0.2,0.2,0.3,0.5,0.4,0.7c1.4,2.2,2.7,4.4,3.9,6.6
			c0.5,0.8,0.9,1.6,1.4,2.4c1.2,2.2,2.5,4.4,3.6,6.6c0.3,0.6,0.6,1.2,0.9,1.8c2.6,5,5.1,10.1,7.3,15.3l0,0
			c13.3,30.7,20.7,64.5,20.7,100.1c0,139-112.7,251.6-251.6,251.6c-139,0-251.6-112.7-251.6-251.6C81.3,223.3,194,110.7,333,110.7
			L333,110.7z"/>
	</g>
</g>
<g id="Layer_2">
	<path class="st0" d="M745,519.4c0,3.3,2.4,6.2,5.2,6.2h169.9c2.9,0,5.2-2.4,5.2-5.2V432c0-2.4-1.9-4.8-5.2-4.8h-82.1
		c-1.4,0-2.9-1.4-2.9-3.3v-28c0-2.4,1.4-3.8,3.3-3.8H877c1.9,0,3.8-1.9,3.8-4.3v-86.4c0-1.9-1.4-3.3-3.3-3.3h-37.5
		c-1.4,0-3.3-1.4-3.3-3.3v-26.6c0-1.9,1.4-3.3,3.3-3.3h79.3c2.8,0,5.2-1.9,5.2-4.7v-85.4c0-2.8-1.9-5.2-4.7-5.2H751.2
		c-3.3,0-6.2,3.3-6.2,6.2V519.4L745,519.4z M1029.8,525.5c3.3,0,5.7-3.3,5.7-6.2V174.3c0-2.8-2.4-4.7-5.7-4.7h-81.2
		c-2.4,0-4.3,2.4-4.3,4.7v344.1c0,3.8,2.9,7.1,6.2,7.1H1029.8L1029.8,525.5z M1251.9,281.1c3.8,0,5.7-2.9,5.7-6.2
		c0-56.5-39.4-106.3-103-106.3c-63.6,0-99.7,52.7-99.7,101.1c0,32.3,15.7,67.9,47.5,93.5c31.8,25.6,58.4,46.5,58.4,57.9
		c0,10.9-4.3,15.2-10.9,15.2c-11.4,0-19.5-20.4-21.4-39.4c-0.5-4.3-2.4-6.2-5.7-6.2l-65.5,3.3c-3.8,0-5.7,2.4-5.7,4.8
		c0,75.9,33.2,128.2,105.4,128.2c62.2,0,100.1-50.8,100.1-114.4c0-35.1-23.3-69.3-54.1-90.2c-28.5-19.5-50.8-36.6-50.8-51.7
		c0-4.7,2.4-8.5,7.1-8.5c6.7,0,11.4,5.7,14.2,17.1c0.9,3.8,2.9,5.2,5.7,5.2L1251.9,281.1L1251.9,281.1z M1368.7,519.4
		c0,3.3,2.9,6.2,5.2,6.2h82.6c3.8,0,6.2-2.4,6.2-6.6V403.6c0-2.9,2.4-6.2,4.8-6.2h35.6c3.3,0,5.7-2.4,5.7-5.2v-85.9
		c0-2.4-2.8-4.7-5.2-4.7h-36.1c-3.3,0-4.8-1.9-4.8-4.3v-28.5c0-3.3,2.4-5.2,5.2-5.2h76.9c3.3,0,6.2-2.8,6.2-6.2v-82.6
		c0-2.8-2.4-5.2-5.7-5.2h-170.9c-3.3,0-5.7,3.3-5.7,6.6V519.4L1368.7,519.4z M1653.5,525.5c3.3,0,5.7-3.3,5.7-6.2V174.3
		c0-2.8-2.4-4.7-5.7-4.7h-81.2c-2.4,0-4.3,2.4-4.3,4.7v344.1c0,3.8,2.8,7.1,6.2,7.1H1653.5L1653.5,525.5z M1762.6,174.3
		c-0.5-3.3-2.9-4.7-5.7-4.7h-85c-2.8,0-3.8,2.8-3.3,5.2l64.1,345.1c0.5,2.4,2.9,5.7,5.7,5.7h92.6c3.3,0,5.7-2.4,6.2-5.7l66-344.1
		c0.5-3.3-1.4-6.2-4.3-6.2h-81.6c-2.9,0-4.7,2.8-5.7,6.2l-19.9,147.1c0,2.4-1.4,3.8-2.4,3.8c-0.5,0-1.9-1.4-2.4-3.8L1762.6,174.3
		L1762.6,174.3z M1912.6,519.4c0,3.3,2.4,6.2,5.2,6.2h169.9c2.8,0,5.2-2.4,5.2-5.2V432c0-2.4-1.9-4.8-5.2-4.8h-82.1
		c-1.4,0-2.8-1.4-2.8-3.3v-28c0-2.4,1.4-3.8,3.3-3.8h38.4c1.9,0,3.8-1.9,3.8-4.3v-86.4c0-1.9-1.4-3.3-3.3-3.3h-37.5
		c-1.4,0-3.3-1.4-3.3-3.3v-26.6c0-1.9,1.4-3.3,3.3-3.3h79.3c2.9,0,5.2-1.9,5.2-4.7v-85.4c0-2.8-1.9-5.2-4.7-5.2h-168.5
		c-3.3,0-6.2,3.3-6.2,6.2V519.4L1912.6,519.4z"/>
</g>
</svg>
